<svg xmlns="http://www.w3.org/2000/svg" width="147.603" height="175.5" viewBox="0 0 147.603 175.5">
  <g id="Group_1" data-name="Group 1" transform="translate(0.24 0)">
    <circle id="Ellipse_1" data-name="Ellipse 1" cx="16.361" cy="16.361" r="16.361" transform="translate(20.495 15.912)" fill="#3f3d56"/>
    <circle id="Ellipse_2" data-name="Ellipse 2" cx="16.361" cy="16.361" r="16.361" transform="translate(114.354 21.365)" fill="#3f3d56"/>
    <path id="Path_1" data-name="Path 1" d="M763,216.718a16.36,16.36,0,0,0-14.9,9.6,16.358,16.358,0,0,1,25.775,18.98A16.358,16.358,0,0,0,763,216.718Z" transform="translate(-631.997 -195.927)" fill="#6c63ff"/>
    <path id="Path_2" data-name="Path 2" d="M430.359,197.718a16.359,16.359,0,0,1,14.9,9.6,16.358,16.358,0,0,0-25.775,18.98,16.358,16.358,0,0,1,10.878-28.577Z" transform="translate(-393.79 -182.38)" fill="#6c63ff"/>
    <path id="Path_3" data-name="Path 3" d="M427.216,435.911A42.051,42.051,0,1,1,414.9,406.034,42.228,42.228,0,0,1,427.216,435.911Z" transform="translate(-343 -322.122)" fill="#3f3d56"/>
    <path id="Path_4" data-name="Path 4" d="M505.1,435.91a42.05,42.05,0,0,1-3.792,17.506,49.978,49.978,0,0,1-48.583-58.462A42.228,42.228,0,0,1,505.1,435.91Z" transform="translate(-420.884 -322.122)" fill="#6c63ff"/>
    <circle id="Ellipse_3" data-name="Ellipse 3" cx="49.943" cy="49.943" r="49.943" transform="translate(31.115 25.097)" fill="#3f3d56"/>
    <path id="Path_5" data-name="Path 5" d="M651.816,338.359a16.36,16.36,0,0,1,22.853-3.378,16.361,16.361,0,1,0-22.853,3.378Z" transform="translate(-558.621 -261.611)" fill="#fff"/>
    <path id="Path_6" data-name="Path 6" d="M518.816,349.359a16.36,16.36,0,0,1,22.853-3.378,16.361,16.361,0,1,0-22.853,3.378Z" transform="translate(-463.796 -269.453)" fill="#fff"/>
    <circle id="Ellipse_4" data-name="Ellipse 4" cx="6.028" cy="6.028" r="6.028" transform="translate(59.818 57.531)" fill="#3f3d56"/>
    <circle id="Ellipse_5" data-name="Ellipse 5" cx="6.028" cy="6.028" r="6.028" transform="translate(98.854 52.939)" fill="#3f3d56"/>
    <circle id="Ellipse_6" data-name="Ellipse 6" cx="3.157" cy="3.157" r="3.157" transform="translate(81.632 73.605)" fill="#ff6584"/>
    <path id="Path_7" data-name="Path 7" d="M451.185,688.6V674.718h-4.592V688.6A6.89,6.89,0,0,0,442,695.1h13.777a6.89,6.89,0,0,0-4.592-6.495Z" transform="translate(-413.755 -522.468)" fill="#3f3d56"/>
    <path id="Path_8" data-name="Path 8" d="M510.185,688.6V674.718h-4.592V688.6A6.89,6.89,0,0,0,501,695.1h13.777a6.89,6.89,0,0,0-4.592-6.495Z" transform="translate(-455.82 -522.468)" fill="#3f3d56"/>
    <path id="Path_9" data-name="Path 9" d="M547.1,174.168c-2.081-3.35-3.479-7.286-3.046-11.206s3-7.745,6.781-8.869,8.464,1.2,9.176,5.083a31.9,31.9,0,0,1,16.9-14.075c3.3-1.164,7.7-1.428,9.606,1.508.946,1.453,1.047,3.429,2.313,4.613,1.986,1.856,5.17.549,7.883.707,3.816.223,6.888,3.784,7.368,7.576s-1.2,7.6-3.678,10.512-5.7,5.068-8.885,7.188" transform="translate(-486.462 -144.282)" fill="#3f3d56"/>
    <path id="Path_10" data-name="Path 10" d="M652.651,437.13c.206-.217.418-.428.639-.628q.147-.133.3-.261.095-.08.191-.157c.111-.09.146-.111.012-.011a12.515,12.515,0,0,1,1.538-.985q.37-.2.753-.372l.181-.08c-.271.12-.058.025.011,0q.23-.092.463-.176a13.307,13.307,0,0,1,1.767-.5c.276-.058.554-.1.833-.147.188-.03-.236.026-.047.007l.247-.028q.248-.026.5-.043a13.887,13.887,0,0,1,1.793-.006c.3.018.6.048.892.084-.3-.035.044.008.149.025q.245.04.489.089a13.064,13.064,0,0,1,1.72.471q.21.073.418.154l.229.092c-.039-.016-.252-.112-.036-.014.27.123.538.249.8.388a12.623,12.623,0,0,1,1.541.982c.149.109-.168-.139-.026-.019.063.054.129.1.192.157q.153.128.3.261c.253.228.495.467.728.714q.319.339.614.7s.221.275.1.125c-.1-.126.041.055.064.085q.178.239.346.485a15.033,15.033,0,0,1,.987,1.675q.208.411.393.833c.027.062.121.29.019.042.028.067.055.134.082.2q.1.254.2.51a24,24,0,0,1,1.037,3.859q.094.5.172,1,.035.224.067.449s.049.365.023.166c-.023-.177.017.134.021.167.087.7.156,1.4.212,2.1.109,1.377.168,2.758.21,4.139.106,3.5.2,7.007.3,10.511l.6,21.459.6,21.459.075,2.664a1.292,1.292,0,1,0,2.583,0l-.619-22.051-.614-21.9-.309-11.026a70.094,70.094,0,0,0-.656-8.824c-.837-5.383-3.268-10.978-8.465-13.422a14.716,14.716,0,0,0-15.114,1.566,11.875,11.875,0,0,0-1.324,1.2,1.292,1.292,0,0,0,1.827,1.827Z" transform="translate(-562.371 -348.808)" fill="#6c63ff"/>
    <path id="Path_11" data-name="Path 11" d="M688.435,593.718A1.437,1.437,0,0,0,687,595.153l2.87,43.61a1.442,1.442,0,0,0,1.436,1.454h23.536a1.437,1.437,0,0,0,1.435-1.435l2.871-43.647a1.434,1.434,0,0,0-1.436-1.416Z" transform="translate(-588.433 -464.717)" fill="#e6e6e6"/>
    <path id="Path_12" data-name="Path 12" d="M696.352,601.218a1.435,1.435,0,0,0-1.432,1.531l2.639,39.323a1.439,1.439,0,0,0,1.432,1.339h19.455a1.439,1.439,0,0,0,1.432-1.339l2.639-39.323a1.435,1.435,0,0,0-1.432-1.531Z" transform="translate(-594.077 -470.064)" fill="#6c63ff"/>
    <path id="Path_13" data-name="Path 13" d="M728.574,624.718a.575.575,0,0,0-.574.574v3.157a.575.575,0,0,0,.574.574h4.879a.575.575,0,0,0,.574-.574v-3.157a.575.575,0,0,0-.574-.574Z" transform="translate(-617.665 -486.819)" fill="#e6e6e6"/>
    <path id="Path_14" data-name="Path 14" d="M747.574,653.718a.575.575,0,0,0-.574.574v3.157a.575.575,0,0,0,.574.574h4.879a.575.575,0,0,0,.574-.574v-3.157a.575.575,0,0,0-.574-.574Z" transform="translate(-631.211 -507.495)" fill="#e6e6e6"/>
    <path id="Path_15" data-name="Path 15" d="M729.574,677.718a.575.575,0,0,0-.574.574v3.157a.575.575,0,0,0,.574.574h4.88a.575.575,0,0,0,.574-.574v-3.157a.575.575,0,0,0-.574-.574Z" transform="translate(-618.378 -524.606)" fill="#e6e6e6"/>
    <path id="Path_16" data-name="Path 16" d="M407.289,559.073a7.307,7.307,0,0,1,3.421,3.012,17.232,17.232,0,0,0,2.962,3.681,4.841,4.841,0,0,0,3.811,1.146,3.089,3.089,0,0,0,2.7-2.543c.271-1.836-1.014-3.535-2.141-4.84l-.3.735c1.8.194,3.357,1.217,5,1.876a6.039,6.039,0,0,0,5.013.153,4.547,4.547,0,0,0,2.216-3.2,6.591,6.591,0,0,0-.621-4.2,17.325,17.325,0,0,0-3.544-4.43l-.419.72c1.981.3,4.19.575,5.909-.7a3.5,3.5,0,0,0,1.381-2.016,3.9,3.9,0,0,0-.421-2.639c-.9-1.76-2.61-3-4.14-4.182a60.355,60.355,0,0,0-11.526-7.006c-.5-.232-.937.51-.435.743a60.692,60.692,0,0,1,9.98,5.85,27.662,27.662,0,0,1,4.356,3.6c1.066,1.174,2.037,2.969.873,4.419-1.37,1.707-3.848,1.389-5.749,1.1a.434.434,0,0,0-.419.72c1.986,1.987,4.345,4.373,4,7.431a3.892,3.892,0,0,1-1.713,2.957c-1.4.833-3.156.4-4.569-.172-1.715-.7-3.295-1.681-5.173-1.884-.4-.044-.522.483-.3.735.911,1.056,2,2.43,1.923,3.91a2.285,2.285,0,0,1-2.306,2.05c-2.946.178-4.434-2.889-5.928-4.9a7.677,7.677,0,0,0-3.608-2.954c-.527-.175-.753.656-.229.83Z" transform="translate(-388.795 -422.563)" fill="#6c63ff"/>
  </g>
</svg>
